<svg width="299" height="412" viewBox="0 0 299 412" fill="none" xmlns="http://www.w3.org/2000/svg">
<path d="M82.5603 393.621C94.4668 397.429 106.837 400.022 119.348 400.495C125.585 400.646 131.866 400.513 138.028 399.63C139.571 399.469 141.118 399.237 142.646 398.932C144.175 398.627 145.72 398.418 147.228 398.064C150.248 397.283 153.284 396.623 156.224 395.598C168.103 391.911 179.31 386.074 189.357 378.963C199.298 371.653 207.513 362.217 214.741 352.142C218.356 347.092 221.766 341.885 225.063 336.575L235.026 320.65C241.576 309.979 247.962 299.249 253.885 288.297C259.737 277.316 265.197 266.118 269.695 254.616C274.148 243.088 277.832 231.245 279.571 219.129L280.232 214.577L280.535 210.026L280.814 205.472L280.662 200.914C280.661 194.811 279.552 188.801 278.104 182.864C275.088 170.983 269.857 159.648 264.056 148.611C252.21 126.616 239.383 104.963 224.036 85.2241C208.733 65.5365 190.58 47.6701 168.876 35.3363C147.329 22.7975 122.164 17.1512 97.4124 18.6175C72.5636 19.7422 48.3434 26.5337 25.1134 35.3539C13.4928 39.8473 2.09786 44.9063 -9.15395 50.3339C-20.3819 55.7631 -31.4606 61.4654 -42.0847 67.8922C-63.2566 80.6789 -83.2349 96.0344 -97.5947 115.809C-104.713 125.676 -110.297 136.579 -113.653 148.18C-116.894 159.837 -117.985 171.924 -116.318 183.931C-115.59 189.916 -114.31 195.865 -112.495 201.683C-110.727 207.497 -108.572 213.242 -105.973 218.8C-103.424 224.379 -100.579 229.834 -97.4133 235.143C-94.2952 240.449 -90.9564 245.673 -87.4158 250.744C-73.1819 271.031 -56.3936 289.62 -38.7842 307.379C-29.9413 316.224 -20.9491 324.984 -11.7203 333.425C-2.46602 341.844 7.12167 349.925 17.078 357.505C36.9699 372.614 58.7996 385.579 82.5603 393.621ZM82.3477 394.301C70.4014 390.371 58.9013 385.131 47.8586 379.131C36.7635 373.199 26.2115 366.298 15.9217 359.055C-4.65646 344.546 -23.578 327.802 -42.0468 310.728C-60.4616 293.562 -78.1362 275.345 -93.0407 254.702C-100.521 244.439 -107.213 233.486 -112.639 221.852C-115.39 216.068 -117.717 210.025 -119.653 203.864C-121.613 197.702 -123.033 191.336 -123.873 184.889C-125.744 171.983 -124.471 158.591 -120.981 146.065C-117.371 133.523 -111.299 121.767 -103.62 111.387C-95.9389 100.982 -86.7865 91.8489 -76.911 83.7208C-67.0371 75.6165 -56.4385 68.4938 -45.503 62.0639C-34.5675 55.6339 -23.2936 49.8727 -11.813 44.604C-0.354625 39.3098 11.2707 34.3858 23.147 30.0051C46.8712 21.3135 71.8827 15.2209 97.2924 14.66C103.628 14.411 110.018 14.7879 116.325 15.3269C122.642 16.0819 128.918 17.0975 135.084 18.6803C147.392 21.8443 159.202 26.7464 170.149 33.0991C181.097 39.4519 191.184 47.2316 200.376 55.8613C209.592 64.4926 218.089 73.866 225.881 83.7431C233.747 93.6012 240.984 103.92 247.872 114.455C254.758 125.014 261.323 135.719 267.584 146.667C273.771 157.658 279.496 169.121 282.979 181.537C284.674 187.729 286.021 194.114 286.213 200.589L286.512 205.444L286.359 210.269L286.157 215.115L285.551 219.91C283.864 232.675 280.313 245.054 275.695 256.906C271.099 268.784 265.576 280.218 259.477 291.302C253.403 302.387 246.775 313.149 239.899 323.679C236.461 328.955 233 334.207 229.472 339.382C225.966 344.606 222.294 349.796 218.418 354.804C210.667 364.821 201.853 374.264 191.27 381.507C180.608 388.506 169.064 394.01 156.825 397.361C144.653 400.789 131.925 402.145 119.334 401.427C113.035 401.128 106.799 400.235 100.604 399.081C94.3875 397.902 88.3248 396.206 82.3477 394.301Z" fill="#A47E1B"/>
</svg>
