<svg width="379" height="632" viewBox="0 0 379 632" fill="none" xmlns="http://www.w3.org/2000/svg">
<path d="M256.392 60.3817C242.511 61.4191 228.176 65.1863 213.419 72.2671C118.33 117.985 9.16875 260.804 70.5689 368.284C96.681 413.976 138.346 456.389 173.741 495.048C226.772 553.001 284.45 581.9 364.726 566.482C428.416 554.243 502.869 530.177 545.483 478.146C568.595 449.904 580.831 410.959 570.532 375.941C562.048 347.097 540.054 324.627 520.615 301.707C454.3 223.433 380.464 51.1035 256.392 60.3817Z" fill="#EEE9E8"/>
<path d="M177.659 505.667C170.13 510.542 157.308 523.983 165.787 532.965C172.771 540.374 185.436 534.101 190.915 527.885C195.198 523.032 199.471 513.303 193.807 507.955C190.666 505.005 182.766 504.536 177.659 505.667Z" fill="#182A34"/>
<path d="M215.651 467.927C195.495 480.613 219.194 498.31 227.277 482.207C229.874 477.047 230.943 471.872 225.738 468.462C222.301 466.213 217.277 465.876 214.273 468.542" fill="#182A34"/>
<path d="M240.24 513.516C219.378 531.664 252.996 551.155 258.586 529.134C261.718 516.779 250.693 512.581 240.24 513.516Z" fill="#182A34"/>
<path d="M276.623 481.799C276.359 489.694 278.122 497.543 287.311 498.378C290.191 493.682 292.868 485.737 288.683 480.883C286.021 477.8 278.082 475.793 276.661 480.446" fill="#182A34"/>
<path d="M177.106 450.216C166.538 452.603 160.037 471.339 175.65 466.573C185.55 463.545 190.173 450.234 177.106 450.216Z" fill="#182A34"/>
<path d="M211.423 554.932C203.832 554.739 199.722 559.002 198.451 566.711C197.446 572.772 198.758 575.454 205.052 575.439C214.545 575.415 222.653 553.91 211.423 554.932Z" fill="#182A34"/>
<path d="M269.105 439.585C266.713 442.132 259.793 448.181 263.516 451.924C266.234 454.656 269.682 452.1 271.794 450.404C274.029 448.597 278.383 444.37 276.865 440.945C275.872 438.665 271 437.666 269.515 440.039" fill="#182A34"/>
<path d="M216.48 402.93C212.053 406.61 206.331 417.257 212.585 421.848C217.542 425.482 221.468 420.831 223.051 416.391C225.192 410.428 223.278 403.241 216.48 402.93Z" fill="#182A34"/>
<path d="M261.911 390.44C259.032 393.742 254.435 401.65 257.754 405.893C260.274 409.119 265.557 408.996 268.25 405.953C272.246 401.463 269.652 390.334 261.911 390.44Z" fill="#182A34"/>
</svg>
