<svg width="31" height="31" viewBox="0 0 31 31" fill="none" xmlns="http://www.w3.org/2000/svg">
<path d="M15.1181 0C23.4681 0 30.2363 6.7833 30.2363 15.1498C30.2363 23.5163 23.4681 30.2995 15.1181 30.2995C6.76812 30.2995 0 23.5162 0 15.1498C0 6.78341 6.76822 0 15.1181 0Z" fill="#87351C"/>
<path d="M8.51906 20.816H11.35V11.3607H8.51906V20.816ZM19.5478 11.0331C18.1739 11.0331 16.9446 11.5359 16.0726 12.6457V11.3296H13.2313V20.8161H16.0726V15.686C16.0726 14.6019 17.0638 13.5442 18.3053 13.5442C19.5469 13.5442 19.8531 14.6018 19.8531 15.6595V20.8152H22.684V15.4484C22.6839 11.7205 20.9226 11.0331 19.5478 11.0331ZM9.92128 10.4157C10.7037 10.4157 11.3387 9.77943 11.3387 8.99542C11.3387 8.21141 10.7037 7.5752 9.92128 7.5752C9.1389 7.5752 8.50391 8.21151 8.50391 8.99552C8.50391 9.77953 9.1389 10.4157 9.92128 10.4157Z" fill="#F7F4F3"/>
</svg>
