<svg width="1440" height="766" viewBox="0 0 1440 766" fill="none" xmlns="http://www.w3.org/2000/svg">
<path d="M1311.93 196.125C1297.63 196.983 1282.92 200.834 1267.83 208.32C1170.65 256.657 1060.91 411.479 1126.45 530.912C1154.33 581.685 1198.18 629.169 1235.49 672.398C1291.39 737.201 1351.49 770.151 1434.01 754.83C1499.48 742.667 1575.81 717.72 1618.73 661.374C1642 630.788 1653.84 588.215 1642.5 549.499C1633.16 517.61 1610 492.455 1589.48 466.857C1519.46 379.439 1439.77 188.446 1311.93 196.125Z" fill="#EEE9E8"/>
<path d="M1238.18 649.479C1230.51 654.686 1217.55 669.204 1226.48 679.254C1233.84 687.543 1246.78 680.903 1252.31 674.178C1256.63 668.929 1260.84 658.319 1254.89 652.322C1251.59 649.015 1243.42 648.338 1238.18 649.479Z" fill="#182A34"/>
<path d="M1276.61 608.753C1256.07 622.292 1280.89 642.234 1288.9 624.692C1291.47 619.071 1292.47 613.402 1287.03 609.546C1283.44 607.004 1278.25 606.531 1275.2 609.401" fill="#182A34"/>
<path d="M1302.91 659.382C1281.75 678.912 1316.84 701.028 1322.16 676.928C1325.14 663.406 1313.68 658.566 1302.91 659.382Z" fill="#182A34"/>
<path d="M1339.81 625.246C1339.7 633.922 1341.67 642.589 1351.17 643.694C1354.05 638.588 1356.65 629.907 1352.23 624.484C1349.42 621.04 1341.19 618.671 1339.82 623.759" fill="#182A34"/>
<path d="M1236.48 588.494C1225.62 590.904 1219.3 611.374 1235.31 606.45C1245.46 603.322 1249.96 588.779 1236.48 588.494Z" fill="#182A34"/>
<path d="M1274.02 704.337C1266.18 703.97 1262.03 708.573 1260.87 717.025C1259.96 723.669 1261.37 726.645 1267.86 726.756C1277.66 726.923 1285.59 703.442 1274.02 704.337Z" fill="#182A34"/>
<path d="M1331.19 578.675C1328.78 581.428 1321.76 587.937 1325.68 592.13C1328.54 595.188 1332.04 592.448 1334.19 590.627C1336.46 588.685 1340.86 584.126 1339.23 580.328C1338.16 577.801 1333.11 576.604 1331.62 579.183" fill="#182A34"/>
<path d="M1276.15 537.3C1271.65 541.256 1265.96 552.847 1272.51 558.022C1277.7 562.119 1281.66 557.085 1283.2 552.235C1285.29 545.722 1283.17 537.779 1276.15 537.3Z" fill="#182A34"/>
<path d="M1322.77 524.488C1319.87 528.061 1315.28 536.663 1318.79 541.396C1321.46 544.994 1326.91 544.967 1329.63 541.675C1333.66 536.82 1330.75 524.529 1322.77 524.488Z" fill="#182A34"/>
<path d="M86.8501 437.528C98.9872 441.76 111.597 444.643 124.35 445.169C130.708 445.337 137.11 445.189 143.392 444.207C144.964 444.029 146.542 443.771 148.1 443.431C149.657 443.092 151.233 442.86 152.77 442.466C155.848 441.598 158.943 440.865 161.941 439.725C174.049 435.628 185.473 429.139 195.715 421.234C205.848 413.109 214.222 402.621 221.59 391.422C225.275 385.809 228.751 380.021 232.112 374.119L242.268 356.417C248.945 344.556 255.455 332.629 261.491 320.455C267.457 308.25 273.023 295.802 277.608 283.018C282.147 270.203 285.902 257.039 287.675 243.572L288.349 238.513L288.658 233.453L288.942 228.392L288.787 223.325C288.786 216.541 287.656 209.86 286.179 203.261C283.105 190.055 277.773 177.456 271.86 165.187C259.784 140.739 246.709 116.67 231.065 94.7301C215.465 72.8464 196.961 52.9871 174.837 39.2774C152.873 25.3399 127.221 19.0638 101.99 20.6936C76.6599 21.9438 51.9708 29.4929 28.2909 39.297C16.4454 44.2917 4.82981 49.915 -6.63983 55.948C-18.0852 61.9827 -29.3784 68.3212 -40.2081 75.4648C-61.79 89.6779 -82.1551 106.746 -96.7929 128.726C-104.05 139.694 -109.741 151.813 -113.163 164.709C-116.466 177.666 -117.578 191.101 -115.878 204.448C-115.137 211.1 -113.832 217.713 -111.982 224.18C-110.18 230.642 -107.983 237.028 -105.334 243.206C-102.735 249.407 -99.835 255.471 -96.608 261.372C-93.4296 267.27 -90.0261 273.077 -86.417 278.713C-71.9074 301.263 -54.7941 321.926 -36.8438 341.665C-27.8297 351.498 -18.6633 361.235 -9.25584 370.617C0.177593 379.975 9.95089 388.958 20.0999 397.383C40.377 414.178 62.6294 428.589 86.8501 437.528ZM86.6334 438.284C74.4558 433.916 62.733 428.091 51.4766 421.421C40.1667 414.828 29.4104 407.157 18.9213 399.107C-2.05528 382.979 -21.3431 364.367 -40.1695 345.389C-58.9409 326.308 -76.9577 306.058 -92.1507 283.113C-99.7755 271.705 -106.597 259.531 -112.128 246.598C-114.933 240.169 -117.305 233.452 -119.279 226.604C-121.277 219.754 -122.724 212.679 -123.58 205.513C-125.487 191.167 -124.19 176.281 -120.632 162.358C-116.952 148.417 -110.763 135.35 -102.935 123.811C-95.1051 112.246 -85.7754 102.094 -75.7087 93.059C-65.6437 84.0508 -54.8399 76.1336 -43.6927 68.9864C-32.5455 61.8391 -21.0533 55.4353 -9.35038 49.5789C2.32985 43.6942 14.1802 38.2209 26.2865 33.3515C50.47 23.6904 75.9658 16.9182 101.868 16.2948C108.326 16.018 114.84 16.4369 121.269 17.036C127.708 17.8753 134.105 19.0042 140.391 20.7635C152.937 24.2804 164.976 29.7293 176.135 36.7907C187.295 43.8521 197.576 52.4996 206.947 62.0919C216.341 71.6861 225.002 82.105 232.946 93.0839C240.964 104.042 248.341 115.512 255.362 127.222C262.381 138.958 269.074 150.858 275.456 163.027C281.763 175.244 287.599 187.986 291.149 201.786C292.877 208.669 294.25 215.766 294.445 222.964L294.751 228.361L294.595 233.724L294.388 239.11L293.771 244.44C292.052 258.629 288.431 272.388 283.724 285.563C279.04 298.766 273.409 311.475 267.193 323.795C261 336.117 254.244 348.079 247.236 359.784C243.73 365.649 240.203 371.486 236.607 377.238C233.032 383.046 229.289 388.814 225.338 394.381C217.437 405.515 208.452 416.012 197.665 424.063C186.796 431.842 175.029 437.96 162.553 441.685C150.145 445.495 137.17 447.002 124.336 446.205C117.915 445.873 111.558 444.88 105.244 443.597C98.9063 442.286 92.7262 440.402 86.6334 438.284Z" fill="#A47E1B"/>
</svg>
