<svg width="1345" height="764" viewBox="0 0 1345 764" fill="none" xmlns="http://www.w3.org/2000/svg">
<g clip-path="url(#clip0)" filter="url(#filter0_dd)">
<rect width="1337" height="756" transform="translate(4)" fill="#EEE9E8"/>
<path d="M22.1156 799.069C30.2006 797.326 38.2139 794.723 45.7082 790.843C49.4205 788.86 53.0774 786.697 56.4521 784.138C57.314 783.533 58.1583 782.884 58.9707 782.2C59.7832 781.515 60.6334 780.881 61.4197 780.174C62.9748 778.718 64.5735 777.327 66.0124 775.755C71.954 769.671 76.8904 762.562 80.7829 755.098C84.5564 747.554 86.7115 739.349 88.1045 731.101C88.7981 726.969 89.3265 722.815 89.7592 718.638L91.1007 706.085C91.9255 697.717 92.6373 689.368 93.0131 681.044C93.3397 672.727 93.3736 664.415 92.756 656.245C92.1037 648.075 90.9097 639.977 88.4943 632.367L87.5918 629.506L86.478 626.763L85.3498 624.028L83.9669 621.433C82.234 617.89 79.8763 614.77 77.3394 611.805C72.1932 605.91 65.8994 601.068 59.3544 596.588C46.1432 587.755 32.4523 579.446 17.8219 573.085C3.23199 566.739 -12.5175 562.397 -28.7861 562.445C-45.0204 562.322 -61.4269 567.401 -75.572 576.472C-89.8711 585.376 -102.192 597.361 -113.355 610.194C-118.916 616.661 -124.184 623.381 -129.263 630.268C-134.327 637.148 -139.227 644.136 -143.653 651.395C-152.479 665.847 -159.874 681.394 -162.71 697.64C-164.098 705.731 -164.288 713.914 -162.97 721.762C-161.568 729.605 -158.78 736.983 -154.392 743.398C-152.265 746.631 -149.824 749.659 -147.105 752.433C-144.415 755.221 -141.517 757.839 -138.41 760.202C-135.327 762.594 -132.106 764.816 -128.737 766.846C-125.397 768.89 -121.95 770.814 -118.428 772.582C-104.297 779.63 -89.1447 784.845 -73.7455 789.306C-66.0329 791.504 -58.2568 793.602 -50.4321 795.437C-42.5988 797.25 -34.665 798.757 -26.6568 799.851C-10.6665 802.015 5.85501 802.292 22.1156 799.069ZM22.1835 799.535C14.0403 801.221 5.78768 801.998 -2.41141 802.182C-10.6219 802.423 -18.788 801.922 -26.8969 801.135C-43.1204 799.546 -59.0038 796.11 -74.7142 792.333C-90.419 788.485 -105.987 783.78 -120.613 776.747C-127.926 773.274 -134.972 769.139 -141.466 764.187C-144.726 761.743 -147.81 759.009 -150.697 756.076C-153.599 753.15 -156.241 749.926 -158.565 746.463C-163.328 739.593 -166.379 731.398 -167.881 722.968C-169.317 714.49 -169.081 705.65 -167.51 697.074C-165.944 688.485 -163.151 680.144 -159.648 672.147C-156.14 664.164 -151.926 656.51 -147.318 649.147C-142.709 641.783 -137.712 634.696 -132.453 627.825C-127.215 620.947 -121.773 614.229 -116.03 607.742C-104.54 594.819 -91.5548 582.978 -76.7657 574.214C-73.1092 571.966 -69.2431 570.063 -65.3796 568.281C-61.4492 566.622 -57.4691 565.127 -53.3925 563.999C-45.2537 561.748 -36.9149 560.672 -28.6718 560.724C-20.4286 560.776 -12.2869 561.942 -4.43008 563.899C3.44123 565.848 11.0998 568.467 18.4874 571.613C25.9126 574.723 33.0984 578.309 40.14 582.137C47.1875 585.979 54.0877 590.012 60.8784 594.288C67.6373 598.613 74.2583 603.366 79.8308 609.415C82.5852 612.447 85.1896 615.706 87.1402 619.401L88.6943 622.119L89.9735 624.971L91.2295 627.85L92.2338 630.835C94.8646 638.804 96.2881 647.169 96.9353 655.582C97.6028 664.002 97.5982 672.473 97.156 680.931C96.7284 689.383 95.8836 697.83 94.8271 706.225C94.3017 710.43 93.756 714.627 93.1495 718.802C92.5691 722.999 91.8816 727.231 91.023 731.425C89.3059 739.813 86.8007 748.221 82.6307 755.939C78.3445 763.542 73.1152 770.57 66.8663 776.579C60.6783 782.611 53.5752 787.625 45.9646 791.389C42.1739 793.307 38.2519 794.86 34.2802 796.247C30.2883 797.627 26.2404 798.656 22.1835 799.535Z" fill="#A47E1B"/>
<path d="M1201.67 -87.6597C1195.27 -84.2427 1189.26 -79.1938 1183.76 -72.1905C1148.37 -27.0113 1127.4 75.7927 1180.09 123.873C1202.49 144.311 1231.59 159.726 1256.89 174.304C1294.8 196.164 1328.6 200.693 1363.52 175.621C1391.23 155.726 1421.5 126.966 1430.5 88.933C1435.37 68.2922 1432.72 43.8358 1420.19 26.1904C1409.86 11.6566 1394.48 3.47316 1380.22 -5.48511C1331.55 -36.0938 1258.82 -118.204 1201.67 -87.6597Z" fill="#182A34"/>
<path d="M1186.7 135.522C1180.08 137.386 1167.65 144.3 1171.84 152.73C1175.29 159.682 1185.99 157.949 1191.41 154.65C1195.64 152.076 1200.97 145.953 1198.02 140.795C1196.38 137.947 1190.7 135.84 1186.7 135.522Z" fill="#A47E1B"/>
<path d="M1223.06 116.553C1205.43 121.278 1218.8 139.451 1228.36 129.542C1231.43 126.368 1233.38 122.841 1230.33 119.196C1228.32 116.792 1224.71 115.424 1221.91 116.692" fill="#A47E1B"/>
<path d="M1230.82 155.22C1211.44 163.761 1231.69 185.456 1240.75 170.684C1245.83 162.394 1238.7 156.876 1230.82 155.22Z" fill="#A47E1B"/>
<path d="M1264.65 140.275C1262.68 145.961 1262.2 152.066 1268.75 154.727C1271.91 151.954 1275.67 146.772 1273.7 142.304C1272.44 139.466 1267.07 136.231 1264.98 139.299" fill="#A47E1B"/>
<path d="M1198.78 95.0526C1190.5 94.4274 1181.51 106.607 1194.03 106.628C1201.97 106.638 1208.36 97.9862 1198.78 95.0526Z" fill="#A47E1B"/>
<path d="M1200.36 178.913C1194.84 177.076 1190.86 179.259 1188.19 184.584C1186.09 188.77 1186.44 191.014 1191.06 192.41C1198.03 194.515 1208.82 180.68 1200.36 178.913Z" fill="#A47E1B"/>
<path d="M1268.64 107.88C1266.32 109.199 1259.88 112.053 1261.76 115.609C1263.14 118.204 1266.24 117.115 1268.17 116.353C1270.22 115.538 1274.37 113.435 1274.03 110.604C1273.81 108.723 1270.47 106.907 1268.84 108.302" fill="#A47E1B"/>
<path d="M1238.31 69.4485C1234.24 71.1362 1227.64 77.6038 1231.19 82.3421C1234 86.0941 1237.93 83.5879 1240.09 80.7111C1243 76.8512 1243.22 71.1935 1238.31 69.4485Z" fill="#A47E1B"/>
<path d="M1274.44 70.5148C1271.59 72.2738 1266.43 77.0006 1267.91 80.8295C1269.03 83.7395 1272.93 84.8315 1275.59 83.2186C1279.53 80.8454 1280.14 72.1676 1274.44 70.5148Z" fill="#A47E1B"/>
<path d="M60.5692 725.142C45.0085 740.679 70.1302 751.355 74.0645 735.349C75.3315 730.218 75.2149 725.398 69.7972 723.475C66.2204 722.209 61.6092 722.977 59.452 725.98" fill="#182A34"/>
<path d="M92.9435 761.536C77.8695 782.096 112.374 792.273 112.818 771.517C113.063 759.871 102.207 758.484 92.9435 761.536Z" fill="#182A34"/>
<path d="M117.941 725.867C119.365 732.973 122.622 739.606 131.158 738.389C132.789 733.58 133.551 725.915 128.72 722.474C125.649 720.29 118.003 720.193 117.691 724.651" fill="#182A34"/>
<path d="M22.1726 716.554C13.1475 720.902 11.1996 738.856 24.275 731.335C32.5642 726.561 33.9521 713.805 22.1726 716.554Z" fill="#182A34"/>
<path d="M101.707 689.201C100.083 691.962 95.1082 698.78 99.2453 701.306C102.266 703.148 104.841 700.156 106.39 698.208C108.028 696.136 111.07 691.473 108.987 688.762C107.615 686.954 103.015 687.102 102.172 689.517" fill="#182A34"/>
<path d="M46.4519 666.347C43.2088 670.568 40.2544 681.271 46.8935 684.028C52.1541 686.21 54.7383 681.231 55.2415 676.938C55.9316 671.17 52.6841 665.175 46.4519 666.347Z" fill="#182A34"/>
<path d="M84.0678 646.32C82.1497 649.874 79.6414 657.897 83.543 660.969C86.5066 663.305 91.2735 662.071 93.0765 658.787C95.7579 653.937 91.0666 644.577 84.0678 646.32Z" fill="#182A34"/>
</g>
<defs>
<filter id="filter0_dd" x="0" y="0" width="1345" height="764" filterUnits="userSpaceOnUse" color-interpolation-filters="sRGB">
<feFlood flood-opacity="0" result="BackgroundImageFix"/>
<feColorMatrix in="SourceAlpha" type="matrix" values="0 0 0 0 0 0 0 0 0 0 0 0 0 0 0 0 0 0 127 0"/>
<feOffset dy="4"/>
<feGaussianBlur stdDeviation="2"/>
<feColorMatrix type="matrix" values="0 0 0 0 0 0 0 0 0 0 0 0 0 0 0 0 0 0 0.25 0"/>
<feBlend mode="normal" in2="BackgroundImageFix" result="effect1_dropShadow"/>
<feColorMatrix in="SourceAlpha" type="matrix" values="0 0 0 0 0 0 0 0 0 0 0 0 0 0 0 0 0 0 127 0"/>
<feOffset dy="4"/>
<feGaussianBlur stdDeviation="2"/>
<feColorMatrix type="matrix" values="0 0 0 0 0 0 0 0 0 0 0 0 0 0 0 0 0 0 0.25 0"/>
<feBlend mode="normal" in2="effect1_dropShadow" result="effect2_dropShadow"/>
<feBlend mode="normal" in="SourceGraphic" in2="effect2_dropShadow" result="shape"/>
</filter>
<clipPath id="clip0">
<rect width="1337" height="756" fill="white" transform="translate(4)"/>
</clipPath>
</defs>
</svg>
