<svg width="1320" height="708" viewBox="0 0 1320 708" fill="none" xmlns="http://www.w3.org/2000/svg">
<g clip-path="url(#clip0)" filter="url(#filter0_dd)">
<rect width="1312" height="700" transform="translate(4)" fill="#EEE9E8"/>
<rect x="4" width="1312" height="700" fill="#EEE9E8"/>
<path d="M1335 -23.7143C1310.53 -29.963 1285.18 -28.1242 1261.32 -10.9785C1249.69 -2.61847 1241.63 9.72575 1234.6 22.1721C1218.52 50.6745 1195.2 92.5767 1200.87 126.187C1203.38 141.119 1211.64 154.4 1220.13 166.965C1248.17 208.544 1284.02 249.851 1339 245.713C1366.78 243.619 1392.95 232.092 1417.33 218.658C1449.61 200.882 1486.37 174.764 1490.65 135.16C1495.64 88.899 1446.72 46.6903 1414.28 20.5886C1391.81 2.5065 1364.03 -16.2907 1335 -23.7143Z" fill="#182A34"/>
<path d="M1248.43 18.5596C1239.77 16.4136 1230.85 15.1532 1221.92 15.4087C1217.48 15.5961 1213.02 15.9878 1208.67 16.9075C1207.58 17.0949 1206.49 17.3333 1205.42 17.6229C1204.35 17.9124 1203.26 18.1338 1202.2 18.4574C1200.09 19.1557 1197.96 19.7689 1195.92 20.6375C1187.64 23.8225 1179.94 28.5062 1173.13 34.0416C1166.4 39.7132 1161 46.8155 1156.33 54.3265C1154 58.0905 1151.82 61.9568 1149.73 65.8911L1143.39 77.6942C1139.23 85.597 1135.2 93.5338 1131.5 101.607C1127.86 109.697 1124.5 117.923 1121.84 126.32C1119.22 134.734 1117.16 143.335 1116.5 152.038L1116.24 155.308V158.561L1116.26 161.815L1116.58 165.051C1116.87 169.394 1117.94 173.618 1119.26 177.773C1121.96 186.085 1126.22 193.903 1130.87 201.482C1140.34 216.572 1150.49 231.373 1162.35 244.691C1174.17 257.976 1187.93 269.831 1203.95 277.58C1219.88 285.483 1238.05 288.31 1255.6 286.096C1273.22 284.12 1290.14 278.142 1306.25 270.767C1314.3 267.02 1322.17 262.882 1329.92 258.487C1337.66 254.093 1345.27 249.512 1352.52 244.436C1366.98 234.336 1380.47 222.465 1389.76 207.715C1394.35 200.358 1397.81 192.336 1399.65 183.922C1401.41 175.474 1401.61 166.822 1399.86 158.357C1399.06 154.133 1397.86 149.96 1396.3 145.907C1394.76 141.853 1392.96 137.868 1390.85 134.036C1388.77 130.186 1386.49 126.439 1383.98 122.812C1381.51 119.184 1378.89 115.624 1376.13 112.184C1365.04 98.422 1352.22 85.9887 1338.85 74.1856C1332.14 68.3097 1325.32 62.5018 1318.36 56.9324C1311.37 51.38 1304.17 46.0831 1296.73 41.1609C1281.86 31.3505 1265.71 23.1582 1248.43 18.5596ZM1248.54 18.0657C1257.23 20.2969 1265.66 23.4818 1273.8 27.2288C1281.98 30.9247 1289.81 35.336 1297.48 40.0027C1312.81 49.3532 1327.06 60.3728 1341.01 71.6479C1354.93 82.9911 1368.36 95.1178 1379.95 109.101C1385.75 116.05 1391.03 123.527 1395.44 131.549C1397.68 135.534 1399.62 139.724 1401.29 144.016C1402.97 148.308 1404.28 152.771 1405.19 157.318C1407.13 166.413 1406.86 176.002 1404.97 185.08C1402.99 194.175 1399.23 202.827 1394.25 210.577C1389.28 218.343 1383.2 225.275 1376.56 231.526C1369.91 237.76 1362.71 243.329 1355.23 248.421C1347.75 253.514 1340.01 258.147 1332.09 262.439C1324.18 266.748 1316.14 270.801 1307.9 274.48C1291.43 281.787 1273.92 287.305 1255.87 288.906C1251.37 289.383 1246.81 289.417 1242.29 289.332C1237.76 289.094 1233.25 288.668 1228.79 287.833C1219.88 286.164 1211.24 283.235 1203.15 279.232C1195.06 275.23 1187.52 270.171 1180.57 264.465C1173.6 258.76 1167.12 252.492 1161.1 245.833C1155.04 239.19 1149.4 232.19 1144 225.02C1138.6 217.832 1133.43 210.526 1128.45 203.032C1123.53 195.504 1118.91 187.618 1115.85 178.949C1114.35 174.622 1113.09 170.143 1112.65 165.544L1112.2 162.104L1112.09 158.664L1112 155.206L1112.2 151.766C1112.8 142.603 1114.74 133.627 1117.47 124.975C1120.18 116.305 1123.56 107.909 1127.38 99.7334C1131.18 91.5581 1135.38 83.5872 1139.78 75.7696C1141.98 71.8523 1144.19 67.952 1146.46 64.1028C1148.7 60.2195 1151.07 56.3533 1153.59 52.6063C1158.63 45.1123 1164.46 37.9759 1171.65 32.3214C1178.9 26.8371 1186.86 22.3747 1195.41 19.4112C1203.9 16.3966 1212.9 14.8296 1221.89 14.7445C1226.39 14.6593 1230.87 15 1235.33 15.5279C1239.81 16.073 1244.2 16.9927 1248.54 18.0657Z" fill="#A47E1B"/>
<path d="M195.308 805.92C217.259 806.723 239.265 805.686 260.981 802.739C284.369 799.588 308.271 793.914 326.999 779.657C372.08 745.361 354.366 686.01 312.907 657.878C276.638 633.276 236.676 618.67 200.241 594.6C154.194 564.166 117.023 529.291 75.5359 493.649C-7.23378 422.587 -174.025 435.765 -146.693 576.294C-132.027 651.64 -59.0372 708.368 2.27321 747.002C59.8295 783.288 127.362 803.444 195.308 805.92Z" fill="#182A34"/>
<path d="M58.7004 549.619C72.2476 548.275 79.7634 543.282 76.3033 529.623C74.5151 522.555 74.0845 514.18 65.1648 512.848C59.3547 511.98 46.4263 513.988 41.9747 517.663C35.3387 523.148 41 530.93 43.8135 536.65C46.0345 541.167 51.2152 553.156 58.7004 549.619Z" fill="#A47E1B"/>
<path d="M101.492 529.847C95.5778 532.61 92.9751 536.067 96.7113 541.69C98.6467 544.603 100.172 548.324 104.419 547.505C107.185 546.971 112.713 544.008 114.14 541.638C116.267 538.102 112.469 535.484 110.287 533.344C108.563 531.653 104.314 527.055 101.492 529.847Z" fill="#A47E1B"/>
<path d="M81.9576 478.059C75.5537 481.051 72.7357 484.793 76.7816 490.883C78.874 494.036 80.5311 498.064 85.125 497.181C88.118 496.603 94.107 493.395 95.6522 490.828C97.9561 486.999 93.8452 484.164 91.4816 481.846C89.6169 480.016 85.0116 475.034 81.9576 478.059Z" fill="#A47E1B"/>
</g>
<defs>
<filter id="filter0_dd" x="0" y="0" width="1320" height="708" filterUnits="userSpaceOnUse" color-interpolation-filters="sRGB">
<feFlood flood-opacity="0" result="BackgroundImageFix"/>
<feColorMatrix in="SourceAlpha" type="matrix" values="0 0 0 0 0 0 0 0 0 0 0 0 0 0 0 0 0 0 127 0"/>
<feOffset dy="4"/>
<feGaussianBlur stdDeviation="2"/>
<feColorMatrix type="matrix" values="0 0 0 0 0 0 0 0 0 0 0 0 0 0 0 0 0 0 0.25 0"/>
<feBlend mode="normal" in2="BackgroundImageFix" result="effect1_dropShadow"/>
<feColorMatrix in="SourceAlpha" type="matrix" values="0 0 0 0 0 0 0 0 0 0 0 0 0 0 0 0 0 0 127 0"/>
<feOffset dy="4"/>
<feGaussianBlur stdDeviation="2"/>
<feColorMatrix type="matrix" values="0 0 0 0 0 0 0 0 0 0 0 0 0 0 0 0 0 0 0.25 0"/>
<feBlend mode="normal" in2="effect1_dropShadow" result="effect2_dropShadow"/>
<feBlend mode="normal" in="SourceGraphic" in2="effect2_dropShadow" result="shape"/>
</filter>
<clipPath id="clip0">
<rect width="1312" height="700" fill="white" transform="translate(4)"/>
</clipPath>
</defs>
</svg>
